<?xml version="1.0" encoding="utf-8"?>
<!-- Generator: Adobe Illustrator 16.0.3, SVG Export Plug-In . SVG Version: 6.00 Build 0)  -->
<!DOCTYPE svg PUBLIC "-//W3C//DTD SVG 1.1//EN" "http://www.w3.org/Graphics/SVG/1.1/DTD/svg11.dtd">
<svg version="1.1" id="Layer_1" xmlns="http://www.w3.org/2000/svg" xmlns:xlink="http://www.w3.org/1999/xlink" x="0px" y="0px"
	 width="671.071px" height="420.676px" viewBox="0 0 671.071 420.676" enable-background="new 0 0 671.071 420.676"
	 xml:space="preserve">
<g>
	<path fill="none" stroke="#000000" stroke-width="5" stroke-miterlimit="10" d="M593.259,374.297
		c0-143.302-116.17-259.472-259.473-259.472S74.313,230.995,74.313,374.297"/>
	<path fill="none" stroke="#000000" stroke-width="5" stroke-miterlimit="10" d="M98.14,267.464
		c41.135,88.977,131.181,150.712,235.646,150.712c104.265,0,194.165-61.497,235.408-150.198"/>
	<line fill="none" stroke="#000000" stroke-width="5" stroke-miterlimit="10" x1="337.286" y1="0" x2="337.286" y2="75"/>
	<line fill="none" stroke="#000000" stroke-width="5" stroke-miterlimit="10" x1="270.205" y1="5.256" x2="283.229" y2="79.117"/>
	<line fill="none" stroke="#000000" stroke-width="5" stroke-miterlimit="10" x1="205.055" y1="22.082" x2="230.707" y2="92.559"/>
	<line fill="none" stroke="#000000" stroke-width="5" stroke-miterlimit="10" x1="143.817" y1="49.964" x2="181.317" y2="114.917"/>
	<line fill="none" stroke="#000000" stroke-width="5" stroke-miterlimit="10" x1="88.352" y1="88.057" x2="136.561" y2="145.51"/>
	<line fill="none" stroke="#000000" stroke-width="5" stroke-miterlimit="10" x1="40.343" y1="135.202" x2="97.796" y2="183.411"/>
	<line fill="none" stroke="#000000" stroke-width="5" stroke-miterlimit="10" x1="1.25" y1="189.969" x2="66.202" y2="227.469"/>
	<line fill="none" stroke="#000000" stroke-width="5" stroke-miterlimit="10" x1="669.821" y1="196.031" x2="604.87" y2="233.531"/>
	
		<line fill="none" stroke="#000000" stroke-width="5" stroke-miterlimit="10" x1="631.729" y1="140.564" x2="574.276" y2="188.773"/>
	<line fill="none" stroke="#000000" stroke-width="5" stroke-miterlimit="10" x1="584.583" y1="92.557" x2="536.374" y2="150.01"/>
	<line fill="none" stroke="#000000" stroke-width="5" stroke-miterlimit="10" x1="529.817" y1="53.464" x2="492.317" y2="118.416"/>
	<line fill="none" stroke="#000000" stroke-width="5" stroke-miterlimit="10" x1="469.095" y1="24.476" x2="443.443" y2="94.953"/>
	<line fill="none" stroke="#000000" stroke-width="5" stroke-miterlimit="10" x1="404.261" y1="6.472" x2="391.237" y2="80.332"/>
</g>
</svg>
